<?xml version="1.0" encoding="utf-8" standalone="no"?>
<!DOCTYPE svg PUBLIC "-//W3C//DTD SVG 1.1//EN"
  "http://www.w3.org/Graphics/SVG/1.1/DTD/svg11.dtd">
<svg xmlns:xlink="http://www.w3.org/1999/xlink" width="488.096875pt" height="344.385pt" viewBox="0 0 488.096875 344.385" xmlns="http://www.w3.org/2000/svg" version="1.1">
 <metadata>
  <rdf:RDF xmlns:dc="http://purl.org/dc/elements/1.1/" xmlns:cc="http://creativecommons.org/ns#" xmlns:rdf="http://www.w3.org/1999/02/22-rdf-syntax-ns#">
   <cc:Work>
    <dc:type rdf:resource="http://purl.org/dc/dcmitype/StillImage"/>
    <dc:date>2026-01-30T14:57:01.751894</dc:date>
    <dc:format>image/svg+xml</dc:format>
    <dc:creator>
     <cc:Agent>
      <dc:title>Matplotlib v3.10.8, https://matplotlib.org/</dc:title>
     </cc:Agent>
    </dc:creator>
   </cc:Work>
  </rdf:RDF>
 </metadata>
 <defs>
  <style type="text/css">*{stroke-linejoin: round; stroke-linecap: butt}</style>
 </defs>
 <g id="figure_1">
  <g id="patch_1">
   <path d="M -0 344.385 
L 488.096875 344.385 
L 488.096875 0 
L -0 0 
z
" style="fill: #ffffff"/>
  </g>
  <g id="axes_1">
   <g id="patch_2">
    <path d="M 31.596875 315.085 
L 473.896875 315.085 
L 473.896875 7.2 
L 31.596875 7.2 
z
" style="fill: #ffffff"/>
   </g>
   <g id="matplotlib.axis_1">
    <g id="xtick_1">
     <g id="line2d_1">
      <path d="M 31.596875 315.085 
L 31.596875 7.2 
" clip-path="url(#p8564812eba)" style="fill: none; stroke-dasharray: 0.8,1.32; stroke-dashoffset: 0; stroke: #cccccc; stroke-opacity: 0.6; stroke-width: 0.8"/>
     </g>
     <g id="text_1">
      <!-- 0 -->
      <g style="fill: #262626" transform="translate(28.096875 334.146562) scale(0.14 -0.14)">
       <defs>
        <path id="NimbusRoman-Regular-30" d="M 1626 4326 
C 1274 4326 1005 4224 768 3994 
C 397 3635 154 2899 154 2150 
C 154 1446 365 704 666 346 
C 902 64 1229 -90 1600 -90 
C 1926 -90 2202 19 2432 243 
C 2803 595 3046 1338 3046 2112 
C 3046 3424 2464 4326 1626 4326 
z
M 1606 4160 
C 2144 4160 2432 3437 2432 2099 
C 2432 762 2150 77 1600 77 
C 1050 77 768 762 768 2093 
C 768 3456 1056 4160 1606 4160 
z
" transform="scale(0.015625)"/>
       </defs>
       <use xlink:href="#NimbusRoman-Regular-30"/>
      </g>
     </g>
    </g>
    <g id="xtick_2">
     <g id="line2d_2">
      <path d="M 120.056875 315.085 
L 120.056875 7.2 
" clip-path="url(#p8564812eba)" style="fill: none; stroke-dasharray: 0.8,1.32; stroke-dashoffset: 0; stroke: #cccccc; stroke-opacity: 0.6; stroke-width: 0.8"/>
     </g>
     <g id="text_2">
      <!-- 5 -->
      <g style="fill: #262626" transform="translate(116.556875 334.146562) scale(0.14 -0.14)">
       <defs>
        <path id="NimbusRoman-Regular-35" d="M 1158 3731 
L 2413 3731 
C 2522 3731 2541 3738 2560 3789 
L 2803 4358 
L 2746 4403 
C 2650 4275 2592 4237 2451 4237 
L 1114 4237 
L 416 2720 
C 410 2707 410 2701 410 2688 
C 410 2650 435 2637 486 2637 
C 691 2637 941 2592 1210 2509 
C 1946 2272 2278 1882 2278 1242 
C 2278 627 1894 147 1389 147 
C 1261 147 1158 192 966 333 
C 762 486 621 544 474 544 
C 294 544 205 467 205 307 
C 205 64 499 -90 986 -90 
C 1517 -90 1978 83 2304 410 
C 2592 698 2726 1062 2726 1549 
C 2726 2010 2605 2304 2291 2624 
C 2010 2906 1645 3053 890 3187 
L 1158 3731 
z
" transform="scale(0.015625)"/>
       </defs>
       <use xlink:href="#NimbusRoman-Regular-35"/>
      </g>
     </g>
    </g>
    <g id="xtick_3">
     <g id="line2d_3">
      <path d="M 208.516875 315.085 
L 208.516875 7.2 
" clip-path="url(#p8564812eba)" style="fill: none; stroke-dasharray: 0.8,1.32; stroke-dashoffset: 0; stroke: #cccccc; stroke-opacity: 0.6; stroke-width: 0.8"/>
     </g>
     <g id="text_3">
      <!-- 10 -->
      <g style="fill: #262626" transform="translate(201.516875 334.146562) scale(0.14 -0.14)">
       <defs>
        <path id="NimbusRoman-Regular-31" d="M 755 0 
L 2522 0 
L 2522 96 
C 2029 96 1920 166 1914 474 
L 1914 4314 
L 1862 4326 
L 710 3744 
L 710 3654 
C 960 3750 1114 3795 1171 3795 
C 1306 3795 1363 3699 1363 3494 
L 1363 595 
C 1350 192 1242 102 755 96 
L 755 0 
z
" transform="scale(0.015625)"/>
       </defs>
       <use xlink:href="#NimbusRoman-Regular-31"/>
       <use xlink:href="#NimbusRoman-Regular-30" transform="translate(49.999985 0)"/>
      </g>
     </g>
    </g>
    <g id="xtick_4">
     <g id="line2d_4">
      <path d="M 296.976875 315.085 
L 296.976875 7.2 
" clip-path="url(#p8564812eba)" style="fill: none; stroke-dasharray: 0.8,1.32; stroke-dashoffset: 0; stroke: #cccccc; stroke-opacity: 0.6; stroke-width: 0.8"/>
     </g>
     <g id="text_4">
      <!-- 15 -->
      <g style="fill: #262626" transform="translate(289.976875 334.146562) scale(0.14 -0.14)">
       <use xlink:href="#NimbusRoman-Regular-31"/>
       <use xlink:href="#NimbusRoman-Regular-35" transform="translate(49.999985 0)"/>
      </g>
     </g>
    </g>
    <g id="xtick_5">
     <g id="line2d_5">
      <path d="M 385.436875 315.085 
L 385.436875 7.2 
" clip-path="url(#p8564812eba)" style="fill: none; stroke-dasharray: 0.8,1.32; stroke-dashoffset: 0; stroke: #cccccc; stroke-opacity: 0.6; stroke-width: 0.8"/>
     </g>
     <g id="text_5">
      <!-- 20 -->
      <g style="fill: #262626" transform="translate(378.436875 334.146562) scale(0.14 -0.14)">
       <defs>
        <path id="NimbusRoman-Regular-32" d="M 3040 877 
L 2957 909 
C 2720 538 2650 493 2349 486 
L 819 486 
L 1894 1613 
C 2464 2208 2714 2694 2714 3194 
C 2714 3834 2195 4326 1530 4326 
C 1178 4326 845 4186 608 3930 
C 403 3712 307 3507 198 3053 
L 333 3021 
C 589 3648 813 3853 1261 3853 
C 1805 3853 2163 3488 2163 2950 
C 2163 2445 1869 1856 1331 1286 
L 192 77 
L 192 0 
L 2688 0 
L 3040 877 
z
" transform="scale(0.015625)"/>
       </defs>
       <use xlink:href="#NimbusRoman-Regular-32"/>
       <use xlink:href="#NimbusRoman-Regular-30" transform="translate(49.999985 0)"/>
      </g>
     </g>
    </g>
    <g id="xtick_6">
     <g id="line2d_6">
      <path d="M 473.896875 315.085 
L 473.896875 7.2 
" clip-path="url(#p8564812eba)" style="fill: none; stroke-dasharray: 0.8,1.32; stroke-dashoffset: 0; stroke: #cccccc; stroke-opacity: 0.6; stroke-width: 0.8"/>
     </g>
     <g id="text_6">
      <!-- 25 -->
      <g style="fill: #262626" transform="translate(466.896875 334.146562) scale(0.14 -0.14)">
       <use xlink:href="#NimbusRoman-Regular-32"/>
       <use xlink:href="#NimbusRoman-Regular-35" transform="translate(49.999985 0)"/>
      </g>
     </g>
    </g>
   </g>
   <g id="matplotlib.axis_2">
    <g id="ytick_1">
     <g id="line2d_7">
      <path d="M 31.596875 275.006241 
L 473.896875 275.006241 
" clip-path="url(#p8564812eba)" style="fill: none; stroke-dasharray: 0.8,1.32; stroke-dashoffset: 0; stroke: #cccccc; stroke-opacity: 0.6; stroke-width: 0.8"/>
     </g>
     <g id="text_7">
      <!-- −4 -->
      <g style="fill: #262626" transform="translate(7.2 279.787022) scale(0.14 -0.14)">
       <defs>
        <path id="NimbusRoman-Regular-2212" d="M 3418 1408 
L 3418 1830 
L 192 1830 
L 192 1408 
L 3418 1408 
z
" transform="scale(0.015625)"/>
        <path id="NimbusRoman-Regular-34" d="M 3021 1478 
L 2368 1478 
L 2368 4326 
L 2086 4326 
L 77 1478 
L 77 1069 
L 1875 1069 
L 1875 0 
L 2368 0 
L 2368 1069 
L 3021 1069 
L 3021 1478 
z
M 1869 1478 
L 333 1478 
L 1869 3674 
L 1869 1478 
z
" transform="scale(0.015625)"/>
       </defs>
       <use xlink:href="#NimbusRoman-Regular-2212"/>
       <use xlink:href="#NimbusRoman-Regular-34" transform="translate(56.399994 0)"/>
      </g>
     </g>
    </g>
    <g id="ytick_2">
     <g id="line2d_8">
      <path d="M 31.596875 219.675399 
L 473.896875 219.675399 
" clip-path="url(#p8564812eba)" style="fill: none; stroke-dasharray: 0.8,1.32; stroke-dashoffset: 0; stroke: #cccccc; stroke-opacity: 0.6; stroke-width: 0.8"/>
     </g>
     <g id="text_8">
      <!-- −3 -->
      <g style="fill: #262626" transform="translate(7.2 224.45618) scale(0.14 -0.14)">
       <defs>
        <path id="NimbusRoman-Regular-33" d="M 979 2112 
C 1357 2112 1504 2099 1651 2042 
C 2054 1894 2298 1536 2298 1094 
C 2298 550 1939 141 1466 141 
C 1286 141 1158 186 922 339 
C 736 454 627 499 518 499 
C 371 499 275 410 275 275 
C 275 51 550 -90 998 -90 
C 1485 -90 1990 77 2298 339 
C 2598 602 2758 973 2758 1402 
C 2758 1734 2656 2029 2477 2227 
C 2342 2368 2221 2445 1946 2566 
C 2381 2867 2541 3104 2541 3450 
C 2541 3974 2138 4326 1542 4326 
C 1222 4326 941 4218 710 4013 
C 518 3834 422 3674 288 3290 
L 384 3264 
C 640 3738 928 3942 1331 3942 
C 1754 3942 2035 3667 2035 3258 
C 2035 3027 1939 2803 1779 2637 
C 1587 2445 1408 2349 973 2195 
L 979 2112 
z
" transform="scale(0.015625)"/>
       </defs>
       <use xlink:href="#NimbusRoman-Regular-2212"/>
       <use xlink:href="#NimbusRoman-Regular-33" transform="translate(56.399994 0)"/>
      </g>
     </g>
    </g>
    <g id="ytick_3">
     <g id="line2d_9">
      <path d="M 31.596875 164.344558 
L 473.896875 164.344558 
" clip-path="url(#p8564812eba)" style="fill: none; stroke-dasharray: 0.8,1.32; stroke-dashoffset: 0; stroke: #cccccc; stroke-opacity: 0.6; stroke-width: 0.8"/>
     </g>
     <g id="text_9">
      <!-- −2 -->
      <g style="fill: #262626" transform="translate(7.2 169.125339) scale(0.14 -0.14)">
       <use xlink:href="#NimbusRoman-Regular-2212"/>
       <use xlink:href="#NimbusRoman-Regular-32" transform="translate(56.399994 0)"/>
      </g>
     </g>
    </g>
    <g id="ytick_4">
     <g id="line2d_10">
      <path d="M 31.596875 109.013716 
L 473.896875 109.013716 
" clip-path="url(#p8564812eba)" style="fill: none; stroke-dasharray: 0.8,1.32; stroke-dashoffset: 0; stroke: #cccccc; stroke-opacity: 0.6; stroke-width: 0.8"/>
     </g>
     <g id="text_10">
      <!-- −1 -->
      <g style="fill: #262626" transform="translate(7.2 113.794498) scale(0.14 -0.14)">
       <use xlink:href="#NimbusRoman-Regular-2212"/>
       <use xlink:href="#NimbusRoman-Regular-31" transform="translate(56.399994 0)"/>
      </g>
     </g>
    </g>
    <g id="ytick_5">
     <g id="line2d_11">
      <path d="M 31.596875 53.682875 
L 473.896875 53.682875 
" clip-path="url(#p8564812eba)" style="fill: none; stroke-dasharray: 0.8,1.32; stroke-dashoffset: 0; stroke: #cccccc; stroke-opacity: 0.6; stroke-width: 0.8"/>
     </g>
     <g id="text_11">
      <!-- 0 -->
      <g style="fill: #262626" transform="translate(15.096875 58.463656) scale(0.14 -0.14)">
       <use xlink:href="#NimbusRoman-Regular-30"/>
      </g>
     </g>
    </g>
   </g>
   <g id="FillBetweenPolyCollection_1">
    <defs>
     <path id="mc8089c6116" d="M 49.288875 -119.95733 
L 49.288875 -243.648092 
L 66.980875 -231.768927 
L 84.672875 -224.312961 
L 102.364875 -218.064922 
L 120.056875 -214.102715 
L 137.748875 -211.114766 
L 155.440875 -208.710491 
L 173.132875 -206.65348 
L 190.824875 -205.007437 
L 208.516875 -204.702621 
L 226.208875 -204.647083 
L 243.900875 -203.75778 
L 261.592875 -203.233922 
L 279.284875 -203.131305 
L 296.976875 -203.018959 
L 314.668875 -202.885646 
L 332.360875 -202.783211 
L 350.052875 -203.441054 
L 367.744875 -203.638091 
L 385.436875 -203.351111 
L 403.128875 -202.455903 
L 420.820875 -202.245352 
L 438.512875 -201.667643 
L 456.204875 -200.601598 
L 473.896875 -196.633581 
L 473.896875 -43.294773 
L 473.896875 -43.294773 
L 456.204875 -51.476358 
L 438.512875 -52.955332 
L 420.820875 -52.888458 
L 403.128875 -53.466328 
L 385.436875 -58.183233 
L 367.744875 -55.829182 
L 350.052875 -54.003942 
L 332.360875 -48.788178 
L 314.668875 -51.889019 
L 296.976875 -52.525175 
L 279.284875 -49.722462 
L 261.592875 -52.103819 
L 243.900875 -53.141458 
L 226.208875 -54.5987 
L 208.516875 -52.778755 
L 190.824875 -51.497502 
L 173.132875 -55.204743 
L 155.440875 -58.672659 
L 137.748875 -61.274856 
L 120.056875 -65.342565 
L 102.364875 -63.477693 
L 84.672875 -71.026678 
L 66.980875 -83.313582 
L 49.288875 -119.95733 
z
" style="stroke: #808080; stroke-opacity: 0.2"/>
    </defs>
    <g clip-path="url(#p8564812eba)">
     <use xlink:href="#mc8089c6116" x="0" y="344.385" style="fill: #808080; fill-opacity: 0.2; stroke: #808080; stroke-opacity: 0.2"/>
    </g>
   </g>
   <g id="line2d_12">
    <path d="M 31.596875 21.194773 
L 49.288875 100.736908 
L 66.980875 112.616073 
L 84.672875 120.072039 
L 102.364875 126.320078 
L 120.056875 130.282285 
L 137.748875 133.270234 
L 155.440875 135.674509 
L 173.132875 137.73152 
L 190.824875 139.377563 
L 208.516875 139.682379 
L 226.208875 139.737917 
L 243.900875 140.62722 
L 261.592875 141.151078 
L 279.284875 141.253695 
L 296.976875 141.366041 
L 314.668875 141.499354 
L 332.360875 141.601789 
L 350.052875 140.943946 
L 367.744875 140.746909 
L 385.436875 141.033889 
L 403.128875 141.929097 
L 420.820875 142.139648 
L 438.512875 142.717357 
L 456.204875 143.783402 
L 473.896875 147.751419 
" clip-path="url(#p8564812eba)" style="fill: none; stroke-dasharray: 9.25,4; stroke-dashoffset: 0; stroke: #1f77b4; stroke-opacity: 0.8; stroke-width: 2.5"/>
   </g>
   <g id="line2d_13">
    <path d="M 31.596875 21.194773 
L 49.288875 224.42767 
L 66.980875 261.071418 
L 84.672875 273.358322 
L 102.364875 280.907307 
L 120.056875 279.042435 
L 137.748875 283.110144 
L 155.440875 285.712341 
L 173.132875 289.180257 
L 190.824875 292.887498 
L 208.516875 291.606245 
L 226.208875 289.7863 
L 243.900875 291.243542 
L 261.592875 292.281181 
L 279.284875 294.662538 
L 296.976875 291.859825 
L 314.668875 292.495981 
L 332.360875 295.596822 
L 350.052875 290.381058 
L 367.744875 288.555818 
L 385.436875 286.201767 
L 403.128875 290.918672 
L 420.820875 291.496542 
L 438.512875 291.429668 
L 456.204875 292.908642 
L 473.896875 301.090227 
" clip-path="url(#p8564812eba)" style="fill: none; stroke: #d62728; stroke-width: 2.5; stroke-linecap: round"/>
   </g>
   <g id="patch_3">
    <path d="M 31.596875 315.085 
L 31.596875 7.2 
" style="fill: none; stroke: #cccccc; stroke-width: 1.5; stroke-linejoin: miter; stroke-linecap: square"/>
   </g>
   <g id="patch_4">
    <path d="M 473.896875 315.085 
L 473.896875 7.2 
" style="fill: none; stroke: #cccccc; stroke-width: 1.5; stroke-linejoin: miter; stroke-linecap: square"/>
   </g>
   <g id="patch_5">
    <path d="M 31.596875 315.085 
L 473.896875 315.085 
" style="fill: none; stroke: #cccccc; stroke-width: 1.5; stroke-linejoin: miter; stroke-linecap: square"/>
   </g>
   <g id="patch_6">
    <path d="M 31.596875 7.2 
L 473.896875 7.2 
" style="fill: none; stroke: #cccccc; stroke-width: 1.5; stroke-linejoin: miter; stroke-linecap: square"/>
   </g>
   <g id="legend_1">
    <g id="patch_7">
     <path d="M 308.938281 74.876406 
L 466.796875 74.876406 
Q 469.396875 74.876406 469.396875 72.276406 
L 469.396875 18.3 
Q 469.396875 15.7 466.796875 15.7 
L 308.938281 15.7 
Q 306.338281 15.7 306.338281 18.3 
L 306.338281 72.276406 
Q 306.338281 74.876406 308.938281 74.876406 
z
" style="fill: #4d4d4d; opacity: 0.5; stroke: #4d4d4d; stroke-linejoin: miter"/>
    </g>
    <g id="patch_8">
     <path d="M 306.938281 72.876406 
L 464.796875 72.876406 
Q 467.396875 72.876406 467.396875 70.276406 
L 467.396875 16.3 
Q 467.396875 13.7 464.796875 13.7 
L 306.938281 13.7 
Q 304.338281 13.7 304.338281 16.3 
L 304.338281 70.276406 
Q 304.338281 72.876406 306.938281 72.876406 
z
" style="fill: #ffffff; stroke: #cccccc; stroke-linejoin: miter"/>
    </g>
    <g id="line2d_14">
     <path d="M 309.538281 23.45 
L 322.538281 23.45 
L 335.538281 23.45 
" style="fill: none; stroke-dasharray: 9.25,4; stroke-dashoffset: 0; stroke: #1f77b4; stroke-opacity: 0.8; stroke-width: 2.5"/>
    </g>
    <g id="text_12">
     <!-- Original Input -->
     <g style="fill: #262626" transform="translate(345.938281 28) scale(0.13 -0.13)">
      <defs>
       <path id="NimbusRoman-Regular-4f" d="M 2310 4326 
C 1088 4326 218 3411 218 2118 
C 218 1517 422 928 768 563 
C 1139 160 1709 -90 2272 -90 
C 3533 -90 4403 800 4403 2093 
C 4403 2726 4218 3277 3866 3654 
C 3462 4096 2925 4326 2310 4326 
z
M 2310 4096 
C 2605 4096 2899 3981 3130 3776 
C 3475 3462 3674 2861 3674 2099 
C 3674 1722 3597 1280 3462 947 
C 3405 787 3296 627 3149 480 
C 2925 256 2637 141 2298 141 
C 2003 141 1715 256 1485 454 
C 1158 749 947 1395 947 2106 
C 947 2758 1126 3379 1395 3680 
C 1645 3955 1958 4096 2310 4096 
z
" transform="scale(0.015625)"/>
       <path id="NimbusRoman-Regular-72" d="M 32 0 
L 1568 0 
L 1568 96 
C 1139 109 1037 198 1024 576 
L 1024 2016 
C 1024 2221 1293 2541 1472 2541 
C 1510 2541 1568 2509 1638 2445 
C 1734 2349 1811 2317 1894 2317 
C 2048 2317 2144 2426 2144 2605 
C 2144 2816 2010 2944 1792 2944 
C 1523 2944 1344 2803 1024 2342 
L 1024 2931 
L 992 2944 
C 634 2803 403 2714 45 2598 
L 45 2496 
C 134 2515 192 2522 269 2522 
C 429 2522 486 2419 486 2138 
L 486 538 
C 474 205 435 166 32 96 
L 32 0 
z
" transform="scale(0.015625)"/>
       <path id="NimbusRoman-Regular-69" d="M 102 0 
L 1619 0 
L 1619 96 
C 1197 128 1152 186 1146 653 
L 1146 2925 
L 1120 2944 
L 128 2592 
L 128 2496 
L 179 2502 
C 256 2515 333 2522 397 2522 
C 550 2522 608 2419 608 2138 
L 608 653 
C 595 179 538 115 102 96 
L 102 0 
z
M 819 4371 
C 646 4371 499 4224 499 4045 
C 499 3859 640 3718 819 3718 
C 1011 3718 1152 3859 1152 4045 
C 1152 4230 1005 4371 819 4371 
z
" transform="scale(0.015625)"/>
       <path id="NimbusRoman-Regular-67" d="M 3008 2483 
L 3008 2733 
L 2515 2733 
C 2381 2733 2291 2752 2163 2797 
L 2022 2848 
C 1856 2912 1677 2944 1510 2944 
C 915 2944 442 2490 442 1901 
C 442 1498 608 1254 1037 1043 
L 870 890 
C 736 762 659 691 640 666 
C 506 525 467 454 467 346 
C 467 205 538 134 806 6 
C 346 -326 179 -538 179 -774 
C 179 -1114 672 -1395 1286 -1395 
C 1766 -1395 2266 -1229 2598 -960 
C 2842 -762 2950 -557 2950 -314 
C 2950 83 2650 346 2176 371 
L 1350 410 
C 1005 422 851 480 851 582 
C 851 710 1062 934 1235 986 
C 1466 966 1587 954 1600 954 
C 1837 954 2093 1050 2291 1222 
C 2502 1402 2598 1626 2598 1946 
C 2598 2131 2566 2278 2477 2483 
L 3008 2483 
z
M 941 -13 
C 1158 -58 1658 -96 1984 -96 
C 2560 -96 2771 -179 2771 -410 
C 2771 -781 2285 -1030 1562 -1030 
C 992 -1030 627 -845 627 -563 
C 627 -416 685 -320 941 -13 
z
M 973 2163 
C 973 2541 1152 2765 1446 2765 
C 1645 2765 1811 2656 1914 2464 
C 2035 2240 2106 1952 2106 1696 
C 2106 1338 1926 1114 1632 1114 
C 1235 1114 973 1530 973 2144 
L 973 2163 
z
" transform="scale(0.015625)"/>
       <path id="NimbusRoman-Regular-6e" d="M 115 0 
L 1472 0 
L 1472 96 
C 1152 115 1050 198 1050 429 
L 1050 2227 
C 1357 2515 1498 2592 1709 2592 
C 2022 2592 2176 2394 2176 1971 
L 2176 634 
C 2163 218 2086 115 1773 96 
L 1773 0 
L 3104 0 
L 3104 96 
C 2790 128 2720 205 2714 518 
L 2714 1984 
C 2714 2586 2432 2944 1958 2944 
C 1664 2944 1466 2835 1030 2426 
L 1030 2931 
L 986 2944 
C 653 2822 435 2752 102 2656 
L 102 2547 
C 147 2566 205 2573 275 2573 
C 454 2573 512 2477 512 2163 
L 512 576 
C 506 198 435 115 115 96 
L 115 0 
z
" transform="scale(0.015625)"/>
       <path id="NimbusRoman-Regular-61" d="M 2829 422 
C 2720 333 2643 301 2547 301 
C 2400 301 2355 390 2355 672 
L 2355 1920 
C 2355 2253 2323 2438 2227 2592 
C 2086 2822 1811 2944 1434 2944 
C 832 2944 358 2630 358 2227 
C 358 2080 480 1952 634 1952 
C 787 1952 922 2080 922 2221 
C 922 2246 915 2278 909 2323 
C 896 2381 890 2432 890 2477 
C 890 2650 1094 2790 1350 2790 
C 1664 2790 1837 2605 1837 2259 
L 1837 1869 
C 858 1478 742 1421 467 1178 
C 326 1050 237 832 237 621 
C 237 218 518 -64 909 -64 
C 1190 -64 1453 70 1843 403 
C 1875 64 1990 -64 2253 -64 
C 2470 -64 2605 13 2829 256 
L 2829 422 
z
M 1837 787 
C 1837 595 1805 525 1670 448 
C 1510 358 1338 307 1203 307 
C 979 307 800 525 800 800 
L 800 826 
C 806 1210 1088 1453 1837 1715 
L 1837 787 
z
" transform="scale(0.015625)"/>
       <path id="NimbusRoman-Regular-6c" d="M 134 0 
L 1645 0 
L 1645 96 
C 1242 115 1171 179 1165 538 
L 1165 4358 
L 1139 4371 
C 813 4269 576 4198 122 4090 
L 122 3987 
L 160 3987 
C 230 3994 307 4000 358 4000 
C 563 4000 627 3910 627 3610 
L 627 557 
C 621 211 531 122 134 96 
L 134 0 
z
" transform="scale(0.015625)"/>
       <path id="NimbusRoman-Regular-20" transform="scale(0.015625)"/>
       <path id="NimbusRoman-Regular-49" d="M 115 0 
L 2016 0 
L 2016 122 
C 1491 134 1402 224 1389 698 
L 1389 3539 
C 1402 4019 1485 4096 2016 4115 
L 2016 4237 
L 115 4237 
L 115 4115 
C 659 4083 730 4019 736 3539 
L 736 698 
C 730 211 653 141 115 122 
L 115 0 
z
" transform="scale(0.015625)"/>
       <path id="NimbusRoman-Regular-70" d="M 32 -1389 
L 1581 -1389 
L 1581 -1274 
C 1101 -1267 1024 -1203 1018 -794 
L 1018 211 
C 1248 0 1395 -64 1664 -64 
C 2426 -64 3008 653 3008 1581 
C 3008 2374 2560 2944 1939 2944 
C 1581 2944 1299 2790 1018 2438 
L 1018 2931 
L 979 2944 
C 634 2810 410 2726 58 2618 
L 58 2515 
C 115 2522 154 2522 218 2522 
C 435 2522 480 2458 480 2157 
L 480 -838 
C 480 -1178 410 -1242 32 -1280 
L 32 -1389 
z
M 1018 2138 
C 1018 2330 1376 2560 1670 2560 
C 2144 2560 2458 2074 2458 1325 
C 2458 621 2144 141 1683 141 
C 1382 141 1018 371 1018 563 
L 1018 2138 
z
" transform="scale(0.015625)"/>
       <path id="NimbusRoman-Regular-75" d="M 3066 320 
L 3034 320 
C 2720 333 2675 384 2669 685 
L 2669 2880 
L 1658 2880 
L 1658 2771 
C 2054 2752 2131 2688 2131 2368 
L 2131 864 
C 2131 685 2099 595 2010 525 
C 1837 384 1638 307 1446 307 
C 1197 307 992 525 992 794 
L 992 2880 
L 58 2880 
L 58 2790 
C 358 2778 448 2688 454 2381 
L 454 768 
C 454 262 762 -64 1229 -64 
C 1466 -64 1715 38 1888 211 
L 2163 486 
L 2163 -45 
L 2189 -58 
C 2509 70 2739 141 3066 230 
L 3066 320 
z
" transform="scale(0.015625)"/>
       <path id="NimbusRoman-Regular-74" d="M 1632 2880 
L 986 2880 
L 986 3622 
C 986 3686 973 3706 941 3706 
C 570 3168 378 2950 192 2842 
C 122 2797 83 2758 83 2720 
C 83 2701 90 2688 109 2675 
L 448 2675 
L 448 749 
C 448 211 640 -64 1018 -64 
C 1331 -64 1574 90 1786 422 
L 1702 493 
C 1562 326 1459 269 1318 269 
C 1082 269 986 442 986 845 
L 986 2675 
L 1632 2675 
L 1632 2880 
z
" transform="scale(0.015625)"/>
      </defs>
      <use xlink:href="#NimbusRoman-Regular-4f"/>
      <use xlink:href="#NimbusRoman-Regular-72" transform="translate(72.199982 0)"/>
      <use xlink:href="#NimbusRoman-Regular-69" transform="translate(105.499969 0)"/>
      <use xlink:href="#NimbusRoman-Regular-67" transform="translate(133.299957 0)"/>
      <use xlink:href="#NimbusRoman-Regular-69" transform="translate(183.299942 0)"/>
      <use xlink:href="#NimbusRoman-Regular-6e" transform="translate(211.09993 0)"/>
      <use xlink:href="#NimbusRoman-Regular-61" transform="translate(261.099915 0)"/>
      <use xlink:href="#NimbusRoman-Regular-6c" transform="translate(305.499908 0)"/>
      <use xlink:href="#NimbusRoman-Regular-20" transform="translate(333.299896 0)"/>
      <use xlink:href="#NimbusRoman-Regular-49" transform="translate(358.299881 0)"/>
      <use xlink:href="#NimbusRoman-Regular-6e" transform="translate(391.599869 0)"/>
      <use xlink:href="#NimbusRoman-Regular-70" transform="translate(441.599854 0)"/>
      <use xlink:href="#NimbusRoman-Regular-75" transform="translate(491.599838 0)"/>
      <use xlink:href="#NimbusRoman-Regular-74" transform="translate(541.599823 0)"/>
     </g>
    </g>
    <g id="line2d_15">
     <path d="M 309.538281 41.883594 
L 322.538281 41.883594 
L 335.538281 41.883594 
" style="fill: none; stroke: #d62728; stroke-width: 2.5; stroke-linecap: round"/>
    </g>
    <g id="text_13">
     <!-- Refined (After FDFR) -->
     <g style="fill: #262626" transform="translate(345.938281 46.433594) scale(0.13 -0.13)">
      <defs>
       <path id="NimbusRoman-Regular-52" d="M 4218 122 
C 3974 141 3846 205 3661 422 
L 2342 2042 
C 3155 2202 3501 2522 3501 3110 
C 3501 3386 3418 3622 3251 3808 
C 3008 4070 2470 4237 1875 4237 
L 109 4237 
L 109 4115 
C 582 4064 646 4006 653 3539 
L 653 768 
C 646 224 589 160 109 122 
L 109 0 
L 1882 0 
L 1882 122 
C 1389 154 1312 230 1306 698 
L 1306 1958 
L 1664 1971 
L 3187 0 
L 4218 0 
L 4218 122 
z
M 1306 3770 
C 1306 3949 1376 4000 1632 4000 
C 2432 4000 2803 3725 2803 3123 
C 2803 2803 2669 2534 2438 2413 
C 2144 2246 1920 2208 1306 2195 
L 1306 3770 
z
" transform="scale(0.015625)"/>
       <path id="NimbusRoman-Regular-65" d="M 2611 1050 
C 2304 563 2029 378 1619 378 
C 1254 378 979 563 794 928 
C 678 1171 634 1376 621 1773 
L 2592 1773 
C 2541 2189 2477 2374 2317 2579 
C 2125 2810 1830 2944 1498 2944 
C 1178 2944 877 2829 634 2611 
C 333 2349 160 1894 160 1370 
C 160 486 621 -64 1357 -64 
C 1965 -64 2445 314 2714 1005 
L 2611 1050 
z
M 634 1978 
C 704 2477 922 2714 1312 2714 
C 1702 2714 1856 2534 1939 1978 
L 634 1978 
z
" transform="scale(0.015625)"/>
       <path id="NimbusRoman-Regular-66" d="M 1978 2880 
L 1190 2880 
L 1190 3622 
C 1190 4000 1312 4192 1555 4192 
C 1696 4192 1779 4128 1894 3942 
C 1997 3776 2074 3712 2182 3712 
C 2336 3712 2451 3827 2451 3974 
C 2451 4205 2170 4371 1786 4371 
C 1382 4371 1050 4198 883 3910 
C 717 3622 666 3392 659 2880 
L 134 2880 
L 134 2675 
L 659 2675 
L 659 666 
C 646 186 582 115 128 96 
L 128 0 
L 1792 0 
L 1792 96 
C 1267 115 1197 186 1197 666 
L 1197 2675 
L 1978 2675 
L 1978 2880 
z
" transform="scale(0.015625)"/>
       <path id="NimbusRoman-Regular-64" d="M 3142 371 
C 3059 365 3021 365 2995 365 
C 2771 365 2714 435 2714 730 
L 2714 4358 
L 2682 4371 
C 2381 4269 2163 4198 1741 4090 
L 1741 3987 
C 1792 3994 1824 3994 1882 3994 
C 2118 3994 2176 3930 2176 3667 
L 2176 2669 
C 1933 2874 1760 2944 1504 2944 
C 768 2944 173 2221 173 1312 
C 173 493 646 -64 1357 -64 
C 1715 -64 1958 64 2176 365 
L 2176 -45 
L 2202 -64 
L 3142 269 
L 3142 371 
z
M 2176 653 
C 2176 608 2131 531 2067 461 
C 1958 333 1792 269 1606 269 
C 1069 269 723 781 723 1574 
C 723 2291 1037 2765 1523 2765 
C 1869 2765 2176 2464 2176 2125 
L 2176 653 
z
" transform="scale(0.015625)"/>
       <path id="NimbusRoman-Regular-28" d="M 1888 4326 
C 1414 4013 1222 3853 986 3558 
C 531 3002 307 2362 307 1613 
C 307 794 544 173 1107 -480 
C 1370 -787 1536 -928 1869 -1133 
L 1946 -1030 
C 1434 -627 1254 -397 1082 77 
C 928 506 858 986 858 1632 
C 858 2304 941 2835 1114 3226 
C 1293 3622 1485 3853 1946 4224 
L 1888 4326 
z
" transform="scale(0.015625)"/>
       <path id="NimbusRoman-Regular-41" d="M 4518 122 
C 4230 141 4166 205 3942 678 
L 2349 4314 
L 2221 4314 
L 890 1171 
C 480 237 403 134 96 122 
L 96 0 
L 1363 0 
L 1363 122 
C 1056 122 928 198 928 384 
C 928 461 947 550 979 634 
L 1274 1382 
L 2950 1382 
L 3213 768 
C 3290 595 3334 429 3334 339 
C 3334 179 3226 128 2886 122 
L 2886 0 
L 4518 0 
L 4518 122 
z
M 1382 1645 
L 2118 3405 
L 2861 1645 
L 1382 1645 
z
" transform="scale(0.015625)"/>
       <path id="NimbusRoman-Regular-46" d="M 3066 1478 
L 3066 2963 
L 2918 2963 
C 2848 2458 2739 2368 2214 2355 
L 1286 2355 
L 1286 3776 
C 1293 3968 1312 3987 1491 3994 
L 2362 3994 
C 3104 3981 3232 3891 3334 3322 
L 3494 3322 
L 3475 4237 
L 77 4237 
L 77 4115 
C 544 4083 621 4000 634 3539 
L 634 768 
C 627 224 563 154 77 122 
L 77 0 
L 1869 0 
L 1869 122 
C 1382 141 1293 230 1286 698 
L 1286 2093 
L 2214 2093 
C 2739 2086 2842 1997 2918 1478 
L 3066 1478 
z
" transform="scale(0.015625)"/>
       <path id="NimbusRoman-Regular-44" d="M 102 0 
L 1920 0 
C 2662 0 3334 211 3731 570 
C 4147 947 4384 1517 4384 2138 
C 4384 2714 4198 3213 3840 3565 
C 3405 4006 2707 4237 1830 4237 
L 102 4237 
L 102 4115 
C 608 4070 659 4019 666 3539 
L 666 698 
C 659 230 582 154 102 122 
L 102 0 
z
M 1318 3750 
C 1318 3949 1382 4000 1651 4000 
C 2208 4000 2618 3898 2925 3680 
C 3424 3334 3686 2784 3686 2093 
C 3686 1338 3424 800 2906 499 
C 2579 314 2208 237 1651 237 
C 1395 237 1318 294 1318 499 
L 1318 3750 
z
" transform="scale(0.015625)"/>
       <path id="NimbusRoman-Regular-29" d="M 243 -1133 
C 717 -819 909 -659 1146 -365 
C 1600 192 1824 832 1824 1581 
C 1824 2400 1587 3021 1024 3674 
C 762 3981 595 4122 262 4326 
L 186 4224 
C 698 3821 870 3597 1050 3117 
C 1203 2688 1274 2208 1274 1562 
C 1274 890 1190 365 1018 -26 
C 845 -422 646 -659 186 -1030 
L 243 -1133 
z
" transform="scale(0.015625)"/>
      </defs>
      <use xlink:href="#NimbusRoman-Regular-52"/>
      <use xlink:href="#NimbusRoman-Regular-65" transform="translate(66.699997 0)"/>
      <use xlink:href="#NimbusRoman-Regular-66" transform="translate(111.099991 0)"/>
      <use xlink:href="#NimbusRoman-Regular-69" transform="translate(144.399979 0)"/>
      <use xlink:href="#NimbusRoman-Regular-6e" transform="translate(172.199966 0)"/>
      <use xlink:href="#NimbusRoman-Regular-65" transform="translate(222.199951 0)"/>
      <use xlink:href="#NimbusRoman-Regular-64" transform="translate(266.599945 0)"/>
      <use xlink:href="#NimbusRoman-Regular-20" transform="translate(316.59993 0)"/>
      <use xlink:href="#NimbusRoman-Regular-28" transform="translate(341.599915 0)"/>
      <use xlink:href="#NimbusRoman-Regular-41" transform="translate(374.899902 0)"/>
      <use xlink:href="#NimbusRoman-Regular-66" transform="translate(447.099884 0)"/>
      <use xlink:href="#NimbusRoman-Regular-74" transform="translate(480.399872 0)"/>
      <use xlink:href="#NimbusRoman-Regular-65" transform="translate(508.19986 0)"/>
      <use xlink:href="#NimbusRoman-Regular-72" transform="translate(552.599854 0)"/>
      <use xlink:href="#NimbusRoman-Regular-20" transform="translate(585.899841 0)"/>
      <use xlink:href="#NimbusRoman-Regular-46" transform="translate(610.899826 0)"/>
      <use xlink:href="#NimbusRoman-Regular-44" transform="translate(666.499817 0)"/>
      <use xlink:href="#NimbusRoman-Regular-46" transform="translate(738.699799 0)"/>
      <use xlink:href="#NimbusRoman-Regular-52" transform="translate(794.299789 0)"/>
      <use xlink:href="#NimbusRoman-Regular-29" transform="translate(860.999786 0)"/>
     </g>
    </g>
    <g id="patch_9">
     <path d="M 309.538281 64.855 
L 335.538281 64.855 
L 335.538281 55.755 
L 309.538281 55.755 
z
" style="fill: #808080; fill-opacity: 0.2; stroke: #808080; stroke-opacity: 0.2; stroke-linejoin: miter"/>
    </g>
    <g id="text_14">
     <!-- Suppressed Noise -->
     <g style="fill: #262626" transform="translate(345.938281 64.855) scale(0.13 -0.13)">
      <defs>
       <path id="NimbusRoman-Regular-53" d="M 2861 4326 
L 2726 4326 
C 2701 4186 2630 4109 2522 4109 
C 2458 4109 2349 4134 2240 4186 
C 2003 4275 1766 4326 1555 4326 
C 1286 4326 1005 4218 794 4032 
C 570 3834 454 3565 454 3232 
C 454 2720 736 2362 1453 1984 
C 1914 1734 2246 1478 2406 1235 
C 2464 1152 2496 1018 2496 858 
C 2496 435 2176 141 1709 141 
C 1133 141 736 493 416 1274 
L 269 1274 
L 461 -83 
L 602 -83 
C 608 38 685 128 781 128 
C 851 128 960 102 1082 58 
C 1325 -38 1587 -90 1837 -90 
C 2579 -90 3142 416 3142 1082 
C 3142 1606 2790 2016 1946 2477 
C 1274 2842 1005 3123 1005 3475 
C 1005 3827 1274 4064 1670 4064 
C 1958 4064 2227 3942 2451 3712 
C 2650 3507 2739 3341 2842 2963 
L 3002 2963 
L 2861 4326 
z
" transform="scale(0.015625)"/>
       <path id="NimbusRoman-Regular-73" d="M 2016 2010 
L 1990 2886 
L 1920 2886 
C 1888 2835 1856 2816 1818 2816 
C 1779 2816 1715 2829 1645 2861 
C 1498 2912 1350 2944 1197 2944 
C 691 2944 326 2611 326 2150 
C 326 1792 531 1536 1075 1229 
L 1446 1018 
C 1670 890 1779 736 1779 538 
C 1779 256 1574 77 1248 77 
C 806 77 582 320 435 973 
L 333 973 
L 333 -26 
L 416 -26 
C 461 38 486 51 563 51 
C 634 51 710 38 858 0 
C 1030 -38 1197 -64 1325 -64 
C 1824 -64 2227 307 2227 755 
C 2227 1075 2074 1286 1690 1517 
L 998 1926 
C 819 2035 723 2189 723 2362 
C 723 2624 922 2797 1216 2797 
C 1581 2797 1773 2586 1920 2010 
L 2016 2010 
z
" transform="scale(0.015625)"/>
       <path id="NimbusRoman-Regular-4e" d="M 4525 4237 
L 3021 4237 
L 3021 4115 
C 3533 4083 3616 3974 3635 3296 
L 3635 1139 
L 1171 4237 
L 77 4237 
L 77 4115 
C 352 4115 442 4064 698 3763 
L 698 941 
C 685 262 602 154 77 122 
L 77 0 
L 1581 0 
L 1581 122 
C 1088 147 992 282 979 941 
L 979 3450 
L 3808 -70 
L 3917 -70 
L 3917 3296 
C 3936 3962 4019 4070 4525 4115 
L 4525 4237 
z
" transform="scale(0.015625)"/>
       <path id="NimbusRoman-Regular-6f" d="M 1600 2944 
C 762 2944 186 2330 186 1446 
C 186 576 781 -64 1587 -64 
C 2394 -64 3008 608 3008 1498 
C 3008 2342 2419 2944 1600 2944 
z
M 1517 2765 
C 2054 2765 2432 2150 2432 1274 
C 2432 544 2144 115 1664 115 
C 1414 115 1178 269 1043 525 
C 864 858 762 1306 762 1760 
C 762 2368 1056 2765 1517 2765 
z
" transform="scale(0.015625)"/>
      </defs>
      <use xlink:href="#NimbusRoman-Regular-53"/>
      <use xlink:href="#NimbusRoman-Regular-75" transform="translate(55.599991 0)"/>
      <use xlink:href="#NimbusRoman-Regular-70" transform="translate(105.599976 0)"/>
      <use xlink:href="#NimbusRoman-Regular-70" transform="translate(155.59996 0)"/>
      <use xlink:href="#NimbusRoman-Regular-72" transform="translate(205.599945 0)"/>
      <use xlink:href="#NimbusRoman-Regular-65" transform="translate(238.899933 0)"/>
      <use xlink:href="#NimbusRoman-Regular-73" transform="translate(283.299927 0)"/>
      <use xlink:href="#NimbusRoman-Regular-73" transform="translate(322.199921 0)"/>
      <use xlink:href="#NimbusRoman-Regular-65" transform="translate(361.099915 0)"/>
      <use xlink:href="#NimbusRoman-Regular-64" transform="translate(405.499908 0)"/>
      <use xlink:href="#NimbusRoman-Regular-20" transform="translate(455.499893 0)"/>
      <use xlink:href="#NimbusRoman-Regular-4e" transform="translate(480.499878 0)"/>
      <use xlink:href="#NimbusRoman-Regular-6f" transform="translate(552.69986 0)"/>
      <use xlink:href="#NimbusRoman-Regular-69" transform="translate(602.699844 0)"/>
      <use xlink:href="#NimbusRoman-Regular-73" transform="translate(630.499832 0)"/>
      <use xlink:href="#NimbusRoman-Regular-65" transform="translate(669.399826 0)"/>
     </g>
    </g>
   </g>
  </g>
 </g>
 <defs>
  <clipPath id="p8564812eba">
   <rect x="31.596875" y="7.2" width="442.3" height="307.885"/>
  </clipPath>
 </defs>
</svg>
